<svg width="517" height="128" viewBox="0 0 517 128" fill="none" xmlns="http://www.w3.org/2000/svg">
<g clip-path="url(#clip0_94_166)">
<path d="M9.83361 71.7889C8.72278 70.6781 8.72278 68.8771 9.83361 67.7663L59.1111 18.4888L69.1677 28.5454L19.8902 77.8229C18.7794 78.9337 16.9784 78.9337 15.8676 77.8229L9.83361 71.7889Z" fill="#FFC755"/>
<path d="M10.3286 102.676C9.21775 101.566 9.21775 99.7646 10.3286 98.6537L59.6061 49.3763L69.6627 59.4329L20.3852 108.71C19.2744 109.821 17.4734 109.821 16.3626 108.71L10.3286 102.676Z" fill="#EBA13B"/>
<path d="M34.9064 108.677C33.7955 107.566 33.7955 105.765 34.9064 104.654L59.6061 79.9542L69.6627 90.0108L44.963 114.711C43.8522 115.821 42.0512 115.821 40.9403 114.711L34.9064 108.677Z" fill="#FFC755"/>
<path d="M75.2627 33.7319L113.912 72.3812C115.023 73.492 115.023 75.293 113.912 76.4038L107.878 82.4378C106.767 83.5486 104.966 83.5486 103.855 82.4378L65.2061 43.7885L75.2627 33.7319Z" fill="#EBA13B"/>
<path d="M74.5516 63.5986L117.112 106.159C118.223 107.27 118.223 109.071 117.112 110.182L111.078 116.216C109.967 117.326 108.166 117.326 107.055 116.216L64.495 73.6552L74.5516 63.5986Z" fill="#FFC755"/>
<path d="M75.2627 95.5986L84.4009 104.737C85.5117 105.848 85.5117 107.649 84.4009 108.759L78.3669 114.793C77.2561 115.904 75.4551 115.904 74.3443 114.793L65.2061 105.655L75.2627 95.5986Z" fill="#EBA13B"/>
</g>
<path d="M516.155 83.4375C516.155 84.4844 516.022 85.4219 515.757 86.25C515.491 87.0938 515.139 87.8281 514.702 88.4531C514.264 89.0938 513.757 89.6328 513.178 90.0703C512.6 90.5234 511.991 90.8906 511.35 91.1719C510.725 91.4531 510.085 91.6562 509.428 91.7812C508.788 91.9219 508.178 91.9922 507.6 91.9922H496.608V85.8984H507.6C508.428 85.8984 509.046 85.6875 509.452 85.2656C509.858 84.8438 510.061 84.2344 510.061 83.4375V64.1953C510.061 63.3984 509.858 62.7969 509.452 62.3906C509.046 61.9688 508.428 61.7578 507.6 61.7578H496.608C495.858 61.7578 495.264 61.9922 494.827 62.4609C494.389 62.9141 494.171 63.4922 494.171 64.1953V72.4453C494.171 73.2422 494.382 73.8516 494.803 74.2734C495.225 74.6953 495.843 74.9062 496.655 74.9062H507.6V81H496.608C496.03 81 495.421 80.9375 494.78 80.8125C494.139 80.6719 493.499 80.4609 492.858 80.1797C492.233 79.8984 491.632 79.5391 491.053 79.1016C490.475 78.6484 489.968 78.1094 489.53 77.4844C489.093 76.8438 488.741 76.1094 488.475 75.2812C488.21 74.4375 488.077 73.4922 488.077 72.4453V64.1953C488.077 63.6172 488.139 63.0078 488.264 62.3672C488.405 61.7266 488.616 61.0938 488.897 60.4688C489.178 59.8281 489.538 59.2188 489.975 58.6406C490.428 58.0625 490.968 57.5547 491.593 57.1172C492.233 56.6797 492.968 56.3281 493.796 56.0625C494.624 55.7969 495.561 55.6641 496.608 55.6641H507.6C508.178 55.6641 508.788 55.7344 509.428 55.875C510.085 56 510.725 56.2031 511.35 56.4844C511.991 56.7656 512.6 57.1328 513.178 57.5859C513.757 58.0234 514.264 58.5625 514.702 59.2031C515.139 59.8281 515.491 60.5547 515.757 61.3828C516.022 62.2109 516.155 63.1484 516.155 64.1953V83.4375Z" fill="white"/>
<path d="M484.689 81H478.595V66.9375C478.595 66.1406 478.454 65.4297 478.173 64.8047C477.907 64.1641 477.54 63.6172 477.072 63.1641C476.603 62.7109 476.048 62.3672 475.407 62.1328C474.782 61.8828 474.103 61.7578 473.368 61.7578H462.704V81H456.611V58.6875C456.611 58.2656 456.689 57.875 456.845 57.5156C457.001 57.1406 457.22 56.8203 457.501 56.5547C457.782 56.2734 458.111 56.0547 458.486 55.8984C458.861 55.7422 459.259 55.6641 459.681 55.6641H473.415C474.181 55.6641 474.986 55.75 475.829 55.9219C476.689 56.0938 477.532 56.375 478.361 56.7656C479.204 57.1406 480.001 57.625 480.751 58.2188C481.517 58.7969 482.189 59.5078 482.767 60.3516C483.361 61.1797 483.829 62.1406 484.173 63.2344C484.517 64.3281 484.689 65.5625 484.689 66.9375V81Z" fill="white"/>
<path d="M452.191 50.4609H446.098V44.9531H452.191V50.4609ZM452.191 81H446.098V55.6641H452.191V81Z" fill="white"/>
<path d="M443.412 61.7578H429.702C428.873 61.7578 428.248 61.9688 427.827 62.3906C427.405 62.7969 427.194 63.3984 427.194 64.1953V81H421.1V64.1953C421.1 63.1484 421.233 62.2109 421.498 61.3828C421.764 60.5547 422.116 59.8281 422.553 59.2031C423.006 58.5625 423.522 58.0234 424.1 57.5859C424.678 57.1328 425.28 56.7656 425.905 56.4844C426.545 56.2031 427.186 56 427.827 55.875C428.483 55.7344 429.092 55.6641 429.655 55.6641H443.412V61.7578Z" fill="white"/>
<path d="M417.477 72.4453C417.477 73.4922 417.345 74.4375 417.079 75.2812C416.813 76.1094 416.462 76.8438 416.024 77.4844C415.587 78.1094 415.079 78.6484 414.501 79.1016C413.923 79.5391 413.313 79.8984 412.673 80.1797C412.048 80.4609 411.407 80.6719 410.751 80.8125C410.11 80.9375 409.501 81 408.923 81H397.931C397.087 81 396.165 80.8516 395.165 80.5547C394.165 80.2578 393.235 79.7734 392.376 79.1016C391.532 78.4141 390.821 77.5312 390.243 76.4531C389.681 75.3594 389.399 74.0234 389.399 72.4453V64.1953C389.399 62.6328 389.681 61.3125 390.243 60.2344C390.821 59.1406 391.532 58.2578 392.376 57.5859C393.235 56.8984 394.165 56.4062 395.165 56.1094C396.165 55.8125 397.087 55.6641 397.931 55.6641H408.923C410.485 55.6641 411.813 55.9453 412.907 56.5078C414.001 57.0703 414.884 57.7812 415.556 58.6406C416.227 59.4844 416.712 60.4062 417.009 61.4062C417.321 62.4062 417.477 63.3359 417.477 64.1953V72.4453ZM411.384 64.2422C411.384 63.3984 411.173 62.7734 410.751 62.3672C410.329 61.9609 409.72 61.7578 408.923 61.7578H397.977C397.165 61.7578 396.548 61.9688 396.126 62.3906C395.704 62.7969 395.493 63.3984 395.493 64.1953V72.4453C395.493 73.2422 395.704 73.8516 396.126 74.2734C396.548 74.6953 397.165 74.9062 397.977 74.9062H408.923C409.751 74.9062 410.368 74.6953 410.774 74.2734C411.181 73.8516 411.384 73.2422 411.384 72.4453V64.2422Z" fill="white"/>
<path d="M386.152 72.4453C386.152 73.4922 386.019 74.4375 385.753 75.2812C385.488 76.1094 385.136 76.8438 384.699 77.4844C384.261 78.1094 383.753 78.6484 383.175 79.1016C382.597 79.5391 381.988 79.8984 381.347 80.1797C380.722 80.4609 380.082 80.6719 379.425 80.8125C378.785 80.9375 378.175 81 377.597 81H366.605C365.761 81 364.839 80.8516 363.839 80.5547C362.839 80.2578 361.91 79.7734 361.05 79.1016C360.207 78.4141 359.496 77.5312 358.917 76.4531C358.355 75.3594 358.074 74.0234 358.074 72.4453V64.1953C358.074 62.6328 358.355 61.3125 358.917 60.2344C359.496 59.1406 360.207 58.2578 361.05 57.5859C361.91 56.8984 362.839 56.4062 363.839 56.1094C364.839 55.8125 365.761 55.6641 366.605 55.6641H377.597C379.16 55.6641 380.488 55.9453 381.582 56.5078C382.675 57.0703 383.558 57.7812 384.23 58.6406C384.902 59.4844 385.386 60.4062 385.683 61.4062C385.996 62.4062 386.152 63.3359 386.152 64.1953V72.4453ZM380.058 64.2422C380.058 63.3984 379.847 62.7734 379.425 62.3672C379.003 61.9609 378.394 61.7578 377.597 61.7578H366.652C365.839 61.7578 365.222 61.9688 364.8 62.3906C364.378 62.7969 364.167 63.3984 364.167 64.1953V72.4453C364.167 73.2422 364.378 73.8516 364.8 74.2734C365.222 74.6953 365.839 74.9062 366.652 74.9062H377.597C378.425 74.9062 379.042 74.6953 379.449 74.2734C379.855 73.8516 380.058 73.2422 380.058 72.4453V64.2422Z" fill="white"/>
<path d="M356.115 81H353.397C352.522 81 351.584 80.8516 350.584 80.5547C349.6 80.2578 348.678 79.7734 347.818 79.1016C346.959 78.4141 346.248 77.5312 345.686 76.4531C345.123 75.3594 344.842 74.0234 344.842 72.4453V44.9531H350.936V72.4453C350.936 73.1953 351.17 73.7969 351.639 74.25C352.107 74.6875 352.693 74.9062 353.397 74.9062H356.115V81Z" fill="white"/>
<path d="M339.462 67.2656H320.196V61.125H339.462V67.2656ZM342.18 53.4844H317.758V81H311.665V50.4609C311.665 50.0391 311.743 49.6406 311.899 49.2656C312.055 48.8906 312.266 48.5625 312.532 48.2812C312.813 48 313.141 47.7812 313.516 47.625C313.891 47.4688 314.297 47.3906 314.735 47.3906H342.18V53.4844Z" fill="white"/>
<path d="M293.052 72.4453C293.052 73.4922 292.92 74.4375 292.654 75.2812C292.388 76.1094 292.037 76.8438 291.599 77.4844C291.162 78.1094 290.654 78.6484 290.076 79.1016C289.498 79.5391 288.888 79.8984 288.248 80.1797C287.623 80.4609 286.982 80.6719 286.326 80.8125C285.685 80.9375 285.076 81 284.498 81H273.506C272.662 81 271.74 80.8516 270.74 80.5547C269.74 80.2578 268.81 79.7734 267.951 79.1016C267.107 78.4141 266.396 77.5312 265.818 76.4531C265.256 75.3594 264.974 74.0234 264.974 72.4453V64.1953C264.974 62.6328 265.256 61.3125 265.818 60.2344C266.396 59.1406 267.107 58.2578 267.951 57.5859C268.81 56.8984 269.74 56.4062 270.74 56.1094C271.74 55.8125 272.662 55.6641 273.506 55.6641H284.498C286.06 55.6641 287.388 55.9453 288.482 56.5078C289.576 57.0703 290.459 57.7812 291.131 58.6406C291.802 59.4844 292.287 60.4062 292.584 61.4062C292.896 62.4062 293.052 63.3359 293.052 64.1953V72.4453ZM286.959 64.2422C286.959 63.3984 286.748 62.7734 286.326 62.3672C285.904 61.9609 285.295 61.7578 284.498 61.7578H273.552C272.74 61.7578 272.123 61.9688 271.701 62.3906C271.279 62.7969 271.068 63.3984 271.068 64.1953V72.4453C271.068 73.2422 271.279 73.8516 271.701 74.2734C272.123 74.6953 272.74 74.9062 273.552 74.9062H284.498C285.326 74.9062 285.943 74.6953 286.349 74.2734C286.756 73.8516 286.959 73.2422 286.959 72.4453V64.2422Z" fill="white"/>
<path d="M264.352 81H255.563L243.282 69.1406C242.594 68.5156 242.274 67.7344 242.321 66.7969C242.352 66.3594 242.461 65.9531 242.649 65.5781C242.852 65.1875 243.125 64.8594 243.469 64.5938L254.602 55.6172H264.352L250.008 67.1719L264.352 81ZM240.774 81H234.68V44.9531H240.774V81Z" fill="white"/>
<path d="M230.987 81H214.464C213.62 81 212.698 80.8516 211.698 80.5547C210.698 80.2578 209.768 79.7734 208.909 79.1016C208.065 78.4141 207.354 77.5312 206.776 76.4531C206.214 75.3594 205.932 74.0234 205.932 72.4453V64.1953C205.932 63.6172 205.995 63.0078 206.12 62.3672C206.261 61.7266 206.472 61.0938 206.753 60.4688C207.034 59.8281 207.393 59.2188 207.831 58.6406C208.284 58.0625 208.823 57.5547 209.448 57.1172C210.089 56.6797 210.823 56.3281 211.651 56.0625C212.479 55.7969 213.417 55.6641 214.464 55.6641H230.987V61.7578H214.464C213.667 61.7578 213.057 61.9609 212.636 62.3672C212.229 62.7734 212.026 63.3984 212.026 64.2422V72.4453C212.026 73.2422 212.237 73.8516 212.659 74.2734C213.081 74.6953 213.698 74.9062 214.511 74.9062H230.987V81Z" fill="white"/>
<path d="M202.685 72.6094C202.685 73.4531 202.537 74.3672 202.24 75.3516C201.943 76.3203 201.458 77.2266 200.787 78.0703C200.13 78.8984 199.263 79.5938 198.185 80.1562C197.122 80.7188 195.826 81 194.294 81H183.302C182.458 81 181.544 80.8516 180.56 80.5547C179.591 80.2578 178.685 79.7812 177.841 79.125C177.013 78.4531 176.318 77.5859 175.755 76.5234C175.193 75.4453 174.912 74.1406 174.912 72.6094C174.912 71.7656 175.06 70.8516 175.357 69.8672C175.654 68.8828 176.13 67.9766 176.787 67.1484C177.458 66.3047 178.326 65.6016 179.388 65.0391C180.466 64.4766 181.771 64.1953 183.302 64.1953H194.294V70.0078H183.302C182.474 70.0078 181.833 70.2656 181.38 70.7812C180.927 71.2812 180.701 71.9062 180.701 72.6562C180.701 73.4531 180.958 74.0781 181.474 74.5312C182.005 74.9688 182.63 75.1875 183.349 75.1875H194.294C195.122 75.1875 195.763 74.9375 196.216 74.4375C196.669 73.9375 196.896 73.3125 196.896 72.5625V64.0547C196.896 63.2578 196.646 62.625 196.146 62.1562C195.662 61.6875 195.044 61.4531 194.294 61.4531H180.912V55.6641H194.294C195.138 55.6641 196.044 55.8125 197.013 56.1094C197.997 56.4062 198.904 56.8906 199.732 57.5625C200.576 58.2188 201.279 59.0859 201.841 60.1641C202.404 61.2266 202.685 62.5234 202.685 64.0547V72.6094Z" fill="white"/>
<path d="M171.805 72.4453C171.805 73.6641 171.594 74.7969 171.172 75.8438C170.75 76.8906 170.156 77.7969 169.391 78.5625C168.641 79.3281 167.742 79.9297 166.695 80.3672C165.648 80.7891 164.508 81 163.273 81H140.938V74.9062H163.273C164.023 74.9062 164.609 74.6953 165.031 74.2734C165.453 73.8359 165.664 73.2266 165.664 72.4453V47.3906H171.805V72.4453Z" fill="white"/>
<defs>
<clipPath id="clip0_94_166">
<rect width="112.356" height="91.0222" fill="white" transform="translate(7.82227 18.4888)"/>
</clipPath>
</defs>
</svg>
